<svg width="1080" height="1080" version="1.1" xmlns="http://www.w3.org/2000/svg"><path fill="rgb(27,27,27)" stroke="rgb(27,27,27)" stroke-width="1" opacity="1" d="M 0 0 L 1080 0 L 1080 1080 L 0 1080 L 0 0 Z M 610 374 L 597 378 L 588 378 L 572 381 L 527 398 L 506 409 L 470 418 L 452 418 L 420 409 L 404 399 L 392 387 L 388 385 L 383 385 L 378 387 L 362 399 Q 352 406 346 418 L 346 423 L 351 431 L 374 449 L 394 460 L 413 468 L 444 476 L 488 476 L 510 470 L 510 548 L 509 549 L 509 564 L 510 565 L 510 576 L 509 577 L 510 635 L 494 642 L 472 647 L 460 647 L 453 645 L 448 645 L 421 637 L 402 625 L 389 614 L 381 615 L 361 631 L 348 644 L 346 648 Q 345 654 348 657 Q 366 676 391 689 L 409 697 L 445 706 L 466 706 L 467 705 L 477 705 L 478 704 L 494 704 L 502 702 L 526 694 L 545 684 L 574 672 L 593 666 L 611 664 L 612 663 L 634 663 L 652 668 Q 665 674 675 684 L 689 699 L 696 699 L 713 685 L 726 678 Q 731 675 733 669 L 732 661 L 722 648 Q 719 649 720 647 Q 709 634 696 625 L 671 612 L 654 607 L 643 606 L 642 605 L 633 605 L 632 604 L 617 604 L 616 605 L 597 606 L 569 612 L 569 564 L 568 563 L 568 549 L 569 548 L 569 529 L 568 528 L 568 501 L 569 500 L 569 483 L 568 482 L 569 446 L 588 439 L 607 435 L 634 435 L 651 439 L 661 444 L 676 457 L 681 464 L 690 470 Q 698 471 703 468 L 729 450 Q 733 447 734 442 L 732 433 L 723 420 L 711 410 L 700 399 L 676 385 L 666 381 L 656 380 L 640 375 L 631 375 L 630 376 L 610 374 Z " /><path fill="rgb(187,187,187)" stroke="rgb(187,187,187)" stroke-width="1" opacity="1" d="M 607.5 375 L 641.5 376 L 645.5 378 L 649.5 378 L 653.5 380 L 672.5 384 L 698.5 399 Q 706.6 410.8 720 416 L 733 436.5 L 733 443.5 L 727.5 450 L 713.5 460 L 710 461 Q 711.1 463.7 708.5 463 Q 703.1 469.1 692.5 470 Q 685.1 468.9 682 463.5 L 679.5 460 L 674 455.5 Q 674.8 453.3 672.5 454 L 664 448 L 661.5 444 L 652.5 439 L 645.5 438 L 641.5 436 L 631.5 434 L 611.5 434 L 610.5 435 L 602.5 435 L 592.5 437 L 569 445 L 568 485.5 L 569 486.5 L 569 495.5 L 568 496.5 L 568 533.5 L 569 534.5 L 569 543.5 L 568 544.5 L 568 578.5 L 569 579.5 L 569 591.5 L 568 592.5 L 568 613 L 582.5 609 L 592.5 607 L 599.5 607 L 600.5 606 L 607.5 606 L 608.5 605 L 635.5 605 L 663.5 610 L 686 620.5 L 685.5 622 L 688.5 622 L 702 630 Q 700.9 632.7 703.5 632 L 706 633 Q 704.9 635.7 707.5 635 L 725 652.5 L 725 654 L 728 655.5 L 728 658 Q 730.7 656.9 730 659.5 L 733 666.5 Q 731.8 672.3 727.5 675 L 724.5 677 L 711.5 685 L 697.5 697 L 690.5 699 L 684 694.5 L 666.5 676 L 657.5 670 L 645.5 665 L 631.5 662 L 616.5 662 L 615.5 663 L 605.5 663 L 599.5 665 L 594.5 665 L 571.5 672 L 547.5 683 L 542.5 684 L 519.5 696 L 496.5 703 L 491.5 704 L 472.5 704 L 471.5 705 L 442.5 705 L 416.5 699 L 395.5 691 L 376.5 680 Q 360.7 669.3 348 655.5 L 346 649.5 Q 348.1 642.1 353.5 638 L 360 634 Q 358.9 631.3 361.5 632 Q 368.4 623.4 378 619 Q 376.9 616.3 379.5 617 Q 381.8 613.8 388.5 615 L 392 616 Q 390.9 618.7 393.5 618 Q 405.9 631.6 424.5 639 L 439.5 644 Q 449 644 455.5 647 L 474.5 647 L 495.5 642 L 510 635.5 L 510 544.5 L 511 543.5 L 511 530.5 L 510 529.5 L 510 516.5 L 511 515.5 L 511 469 L 507.5 469 L 490.5 475 L 447.5 476 L 424.5 471 L 403.5 464 L 376.5 450 L 351 430 L 346 419.5 L 348 414.5 L 360 400 L 364.5 398 L 376.5 388 L 381.5 386 L 388.5 386 Q 401.6 400.9 420.5 410 L 453.5 419 L 468.5 419 L 509.5 408 L 525.5 399 L 548.5 391 L 563.5 384 L 583.5 379 L 599.5 378 L 607.5 375 Z M 386 387 L 387 389 Q 388 386 386 387 Z M 496 645 L 496 646 L 498 646 L 496 645 Z " /><path fill="rgb(167,167,167)" stroke="rgb(167,167,167)" stroke-width="1" opacity="1" d="M 609.5 374 L 615 374.5 L 609.5 375 L 609.5 374 Z " /><path fill="rgb(167,167,167)" stroke="rgb(167,167,167)" stroke-width="1" opacity="1" d="M 604.5 375 L 607 375.5 L 604.5 376 L 604.5 375 Z " /><path fill="rgb(167,167,167)" stroke="rgb(167,167,167)" stroke-width="1" opacity="1" d="M 618.5 375 L 623 375.5 L 618.5 376 L 618.5 375 Z " /><path fill="rgb(167,167,167)" stroke="rgb(167,167,167)" stroke-width="1" opacity="1" d="M 630.5 375 L 640 375.5 L 630.5 376 L 630.5 375 Z " /><path fill="rgb(167,167,167)" stroke="rgb(167,167,167)" stroke-width="1" opacity="1" d="M 600.5 376 L 603 376.5 L 597.5 378 L 597.5 377 L 600.5 376 Z " /><path fill="rgb(167,167,167)" stroke="rgb(167,167,167)" stroke-width="1" opacity="1" d="M 642.5 376 L 649 377.5 L 645.5 378 L 642.5 377 L 642.5 376 Z " /><path fill="rgb(167,167,167)" stroke="rgb(167,167,167)" stroke-width="1" opacity="1" d="M 587.5 378 L 594 378.5 L 587.5 379 L 587.5 378 Z " /><path fill="rgb(167,167,167)" stroke="rgb(167,167,167)" stroke-width="1" opacity="1" d="M 580.5 379 L 583 379.5 L 580.5 380 L 580.5 379 Z " /><path fill="rgb(167,167,167)" stroke="rgb(167,167,167)" stroke-width="1" opacity="1" d="M 657.5 380 L 660 380.5 L 657.5 381 L 657.5 380 Z " /><path fill="rgb(167,167,167)" stroke="rgb(167,167,167)" stroke-width="1" opacity="1" d="M 571.5 381 L 574 381.5 L 571.5 382 L 571.5 381 Z " /><path fill="rgb(167,167,167)" stroke="rgb(167,167,167)" stroke-width="1" opacity="1" d="M 662.5 381 L 669 382.5 L 666.5 383 L 662.5 382 L 662.5 381 Z " /><path fill="rgb(167,167,167)" stroke="rgb(167,167,167)" stroke-width="1" opacity="1" d="M 673.5 384 L 677 386.5 L 675.5 386 L 673.5 385 L 672 385.5 L 673.5 384 Z " /><path fill="rgb(167,167,167)" stroke="rgb(167,167,167)" stroke-width="1" opacity="1" d="M 382.5 385 L 388 385.5 L 382.5 386 L 382.5 385 Z " /><path fill="rgb(167,167,167)" stroke="rgb(167,167,167)" stroke-width="1" opacity="1" d="M 389.5 386 L 403 398.5 L 391.5 388 L 389.5 386 Z " /><path fill="rgb(167,167,167)" stroke="rgb(167,167,167)" stroke-width="1" opacity="1" d="M 556.5 386 L 558 386.5 L 555.5 388 L 556.5 386 Z " /><path fill="rgb(167,167,167)" stroke="rgb(167,167,167)" stroke-width="1" opacity="1" d="M 385.5 387 Q 387.8 386.3 387 388.5 L 385.5 387 Z " /><path fill="rgb(167,167,167)" stroke="rgb(167,167,167)" stroke-width="1" opacity="1" d="M 680.5 388 L 681.5 390 L 680.5 388 Z " /><path fill="rgb(167,167,167)" stroke="rgb(167,167,167)" stroke-width="1" opacity="1" d="M 371.5 391 L 368.5 395 L 371.5 391 Z " /><path fill="rgb(167,167,167)" stroke="rgb(167,167,167)" stroke-width="1" opacity="1" d="M 542.5 392 L 543.5 394 L 542.5 392 Z " /><path fill="rgb(167,167,167)" stroke="rgb(167,167,167)" stroke-width="1" opacity="1" d="M 689.5 393 L 693 395.5 L 691.5 395 L 689.5 393 Z " /><path fill="rgb(167,167,167)" stroke="rgb(167,167,167)" stroke-width="1" opacity="1" d="M 366.5 395 L 364.5 398 L 366.5 395 Z " /><path fill="rgb(167,167,167)" stroke="rgb(167,167,167)" stroke-width="1" opacity="1" d="M 373.5 395 L 372.5 397 L 373.5 395 Z " /><path fill="rgb(167,167,167)" stroke="rgb(167,167,167)" stroke-width="1" opacity="1" d="M 696.5 397 L 697.5 399 L 696.5 397 Z " /><path fill="rgb(167,167,167)" stroke="rgb(167,167,167)" stroke-width="1" opacity="1" d="M 404.5 399 L 410 403.5 L 407.5 402 L 404.5 399 Z " /><path fill="rgb(167,167,167)" stroke="rgb(167,167,167)" stroke-width="1" opacity="1" d="M 699.5 399 L 714 412.5 L 711.5 411 L 699.5 399 Z " /><path fill="rgb(167,167,167)" stroke="rgb(167,167,167)" stroke-width="1" opacity="1" d="M 697.5 400 L 696.5 402 L 697.5 400 Z " /><path fill="rgb(167,167,167)" stroke="rgb(167,167,167)" stroke-width="1" opacity="1" d="M 359.5 401 L 358.5 405 Q 357.3 402.8 356 405.5 L 356.5 407 L 355.5 406 L 351 409.5 L 359.5 401 Z " /><path fill="rgb(167,167,167)" stroke="rgb(167,167,167)" stroke-width="1" opacity="1" d="M 514.5 404 L 513.5 406 L 512 405.5 L 514.5 404 Z " /><path fill="rgb(167,167,167)" stroke="rgb(167,167,167)" stroke-width="1" opacity="1" d="M 413.5 405 L 414.5 407 L 413.5 405 Z " /><path fill="rgb(167,167,167)" stroke="rgb(167,167,167)" stroke-width="1" opacity="1" d="M 510.5 406 L 509.5 408 L 508 407.5 L 510.5 406 Z " /><path fill="rgb(167,167,167)" stroke="rgb(167,167,167)" stroke-width="1" opacity="1" d="M 350.5 411 L 349.5 413 L 350.5 411 Z " /><path fill="rgb(167,167,167)" stroke="rgb(167,167,167)" stroke-width="1" opacity="1" d="M 495.5 411 L 498 411.5 L 495.5 412 L 495.5 411 Z " /><path fill="rgb(167,167,167)" stroke="rgb(167,167,167)" stroke-width="1" opacity="1" d="M 715.5 413 L 716.5 415 L 715.5 413 Z " /><path fill="rgb(167,167,167)" stroke="rgb(167,167,167)" stroke-width="1" opacity="1" d="M 350.5 414 L 349.5 416 L 350.5 414 Z " /><path fill="rgb(167,167,167)" stroke="rgb(167,167,167)" stroke-width="1" opacity="1" d="M 443.5 416 L 446 416.5 L 443.5 417 L 443.5 416 Z " /><path fill="rgb(167,167,167)" stroke="rgb(167,167,167)" stroke-width="1" opacity="1" d="M 474.5 416 L 477 416.5 L 474.5 417 L 474.5 416 Z " /><path fill="rgb(167,167,167)" stroke="rgb(167,167,167)" stroke-width="1" opacity="1" d="M 448.5 417 L 451 417.5 L 448.5 418 L 448.5 417 Z " /><path fill="rgb(167,167,167)" stroke="rgb(167,167,167)" stroke-width="1" opacity="1" d="M 470.5 417 L 473 417.5 L 470.5 418 L 470.5 417 Z " /><path fill="rgb(167,167,167)" stroke="rgb(167,167,167)" stroke-width="1" opacity="1" d="M 720.5 417 L 722.5 420 L 720.5 417 Z " /><path fill="rgb(167,167,167)" stroke="rgb(167,167,167)" stroke-width="1" opacity="1" d="M 453.5 418 L 469 418.5 L 453.5 419 L 453.5 418 Z " /><path fill="rgb(167,167,167)" stroke="rgb(167,167,167)" stroke-width="1" opacity="1" d="M 720.5 420 L 721.5 422 L 720.5 420 Z " /><path fill="rgb(167,167,167)" stroke="rgb(167,167,167)" stroke-width="1" opacity="1" d="M 724.5 422 L 725.5 424 L 724.5 422 Z " /><path fill="rgb(167,167,167)" stroke="rgb(167,167,167)" stroke-width="1" opacity="1" d="M 723.5 424 L 725 426.5 L 724 426.5 L 723.5 424 Z " /><path fill="rgb(167,167,167)" stroke="rgb(167,167,167)" stroke-width="1" opacity="1" d="M 726.5 425 L 727.5 427 L 726.5 425 Z " /><path fill="rgb(167,167,167)" stroke="rgb(167,167,167)" stroke-width="1" opacity="1" d="M 348.5 426 L 350.5 429 L 348.5 426 Z " /><path fill="rgb(167,167,167)" stroke="rgb(167,167,167)" stroke-width="1" opacity="1" d="M 728.5 428 L 729.5 430 L 728.5 428 Z " /><path fill="rgb(167,167,167)" stroke="rgb(167,167,167)" stroke-width="1" opacity="1" d="M 351.5 430 L 358.5 435 L 358.5 433 L 362.5 440 L 351.5 431 L 351.5 430 Z " /><path fill="rgb(167,167,167)" stroke="rgb(167,167,167)" stroke-width="1" opacity="1" d="M 730.5 431 L 733 435.5 L 731 434.5 L 730.5 431 Z " /><path fill="rgb(167,167,167)" stroke="rgb(167,167,167)" stroke-width="1" opacity="1" d="M 611.5 434 L 632 434.5 L 611.5 435 L 611.5 434 Z " /><path fill="rgb(167,167,167)" stroke="rgb(167,167,167)" stroke-width="1" opacity="1" d="M 602.5 435 L 606 435.5 L 602.5 436 L 602.5 435 Z " /><path fill="rgb(167,167,167)" stroke="rgb(167,167,167)" stroke-width="1" opacity="1" d="M 634.5 435 L 637 435.5 L 634.5 436 L 634.5 435 Z " /><path fill="rgb(167,167,167)" stroke="rgb(167,167,167)" stroke-width="1" opacity="1" d="M 597.5 436 L 600 436.5 L 597.5 437 L 597.5 436 Z " /><path fill="rgb(167,167,167)" stroke="rgb(167,167,167)" stroke-width="1" opacity="1" d="M 592.5 437 L 595 437.5 L 592.5 438 L 592.5 437 Z " /><path fill="rgb(167,167,167)" stroke="rgb(167,167,167)" stroke-width="1" opacity="1" d="M 647.5 438 L 650 438.5 L 647.5 439 L 647.5 438 Z " /><path fill="rgb(167,167,167)" stroke="rgb(167,167,167)" stroke-width="1" opacity="1" d="M 733.5 438 L 734 441.5 L 733 441.5 L 733.5 438 Z " /><path fill="rgb(167,167,167)" stroke="rgb(167,167,167)" stroke-width="1" opacity="1" d="M 365.5 441 L 369.5 446 L 365.5 441 Z " /><path fill="rgb(167,167,167)" stroke="rgb(167,167,167)" stroke-width="1" opacity="1" d="M 658.5 442 L 659.5 444 L 658.5 442 Z " /><path fill="rgb(167,167,167)" stroke="rgb(167,167,167)" stroke-width="1" opacity="1" d="M 661.5 444 L 663.5 447 L 661.5 444 Z " /><path fill="rgb(167,167,167)" stroke="rgb(167,167,167)" stroke-width="1" opacity="1" d="M 729.5 445 L 730.5 447 L 732 446.5 L 728.5 450 L 727 448.5 L 730 447.5 L 729.5 445 Z " /><path fill="rgb(167,167,167)" stroke="rgb(167,167,167)" stroke-width="1" opacity="1" d="M 371.5 446 L 374 446.5 L 373.5 448 L 375.5 447 L 375.5 450 L 371.5 446 Z " /><path fill="rgb(167,167,167)" stroke="rgb(167,167,167)" stroke-width="1" opacity="1" d="M 665.5 448 L 666.5 450 L 665.5 448 Z " /><path fill="rgb(167,167,167)" stroke="rgb(167,167,167)" stroke-width="1" opacity="1" d="M 726.5 450 L 724.5 453 L 726.5 450 Z " /><path fill="rgb(167,167,167)" stroke="rgb(167,167,167)" stroke-width="1" opacity="1" d="M 379.5 451 L 380.5 453 L 379.5 451 Z " /><path fill="rgb(167,167,167)" stroke="rgb(167,167,167)" stroke-width="1" opacity="1" d="M 669.5 451 L 674 454 L 675 456.5 L 669.5 451 Z " /><path fill="rgb(167,167,167)" stroke="rgb(167,167,167)" stroke-width="1" opacity="1" d="M 722.5 453 L 721.5 455 L 722.5 453 Z " /><path fill="rgb(167,167,167)" stroke="rgb(167,167,167)" stroke-width="1" opacity="1" d="M 384.5 454 L 387 455.5 L 385.5 455 L 384.5 454 Z " /><path fill="rgb(167,167,167)" stroke="rgb(167,167,167)" stroke-width="1" opacity="1" d="M 392.5 458 L 395 459.5 L 393.5 460 L 392.5 458 Z " /><path fill="rgb(167,167,167)" stroke="rgb(167,167,167)" stroke-width="1" opacity="1" d="M 679.5 460 L 686 467.5 L 681 463.5 L 679.5 460 Z " /><path fill="rgb(167,167,167)" stroke="rgb(167,167,167)" stroke-width="1" opacity="1" d="M 712.5 460 L 710.5 463 L 710 461 L 712.5 460 Z " /><path fill="rgb(167,167,167)" stroke="rgb(167,167,167)" stroke-width="1" opacity="1" d="M 400.5 462 L 403 463.5 L 401.5 463 L 400.5 462 Z " /><path fill="rgb(167,167,167)" stroke="rgb(167,167,167)" stroke-width="1" opacity="1" d="M 568.5 464 L 569 468.5 L 568 468.5 L 568.5 464 Z " /><path fill="rgb(167,167,167)" stroke="rgb(167,167,167)" stroke-width="1" opacity="1" d="M 685.5 464 L 686.5 466 L 685.5 464 Z " /><path fill="rgb(167,167,167)" stroke="rgb(167,167,167)" stroke-width="1" opacity="1" d="M 701.5 467 L 703 467.5 L 699.5 469 L 699.5 468 L 701.5 467 Z " /><path fill="rgb(167,167,167)" stroke="rgb(167,167,167)" stroke-width="1" opacity="1" d="M 507.5 469 L 511 469.5 L 511 515.5 L 510 515.5 L 510 470.5 L 507.5 470 L 507.5 469 Z " /><path fill="rgb(167,167,167)" stroke="rgb(167,167,167)" stroke-width="1" opacity="1" d="M 689.5 469 L 692 469.5 L 689.5 470 L 689.5 469 Z " /><path fill="rgb(167,167,167)" stroke="rgb(167,167,167)" stroke-width="1" opacity="1" d="M 694.5 469 L 698 469.5 L 694.5 470 L 694.5 469 Z " /><path fill="rgb(167,167,167)" stroke="rgb(167,167,167)" stroke-width="1" opacity="1" d="M 443.5 475 L 447 475.5 L 443.5 476 L 443.5 475 Z " /><path fill="rgb(167,167,167)" stroke="rgb(167,167,167)" stroke-width="1" opacity="1" d="M 474.5 475 L 488 475.5 L 474.5 476 L 474.5 475 Z " /><path fill="rgb(167,167,167)" stroke="rgb(167,167,167)" stroke-width="1" opacity="1" d="M 568.5 482 L 569 485.5 L 568 485.5 L 568.5 482 Z " /><path fill="rgb(167,167,167)" stroke="rgb(167,167,167)" stroke-width="1" opacity="1" d="M 568.5 496 L 569 499.5 L 568 499.5 L 568.5 496 Z " /><path fill="rgb(167,167,167)" stroke="rgb(167,167,167)" stroke-width="1" opacity="1" d="M 568.5 528 L 569 533.5 L 568 533.5 L 568.5 528 Z " /><path fill="rgb(167,167,167)" stroke="rgb(167,167,167)" stroke-width="1" opacity="1" d="M 510.5 530 L 511 543.5 L 510 543.5 L 510.5 530 Z " /><path fill="rgb(167,167,167)" stroke="rgb(167,167,167)" stroke-width="1" opacity="1" d="M 568.5 544 L 569 547.5 L 568 547.5 L 568.5 544 Z " /><path fill="rgb(167,167,167)" stroke="rgb(167,167,167)" stroke-width="1" opacity="1" d="M 509.5 548 L 510 563.5 L 509 563.5 L 509.5 548 Z " /><path fill="rgb(167,167,167)" stroke="rgb(167,167,167)" stroke-width="1" opacity="1" d="M 568.5 563 L 569 578.5 L 568 578.5 L 568.5 563 Z " /><path fill="rgb(167,167,167)" stroke="rgb(167,167,167)" stroke-width="1" opacity="1" d="M 509.5 576 L 510 594.5 L 509 594.5 L 509.5 576 Z " /><path fill="rgb(167,167,167)" stroke="rgb(167,167,167)" stroke-width="1" opacity="1" d="M 568.5 592 L 569 612 L 571 612.5 L 568 613 L 568.5 592 Z " /><path fill="rgb(167,167,167)" stroke="rgb(167,167,167)" stroke-width="1" opacity="1" d="M 616.5 604 L 632 604.5 L 616.5 605 L 616.5 604 Z " /><path fill="rgb(167,167,167)" stroke="rgb(167,167,167)" stroke-width="1" opacity="1" d="M 604.5 605 L 608 605.5 L 604.5 606 L 604.5 605 Z " /><path fill="rgb(167,167,167)" stroke="rgb(167,167,167)" stroke-width="1" opacity="1" d="M 636.5 605 L 642 605.5 L 636.5 606 L 636.5 605 Z " /><path fill="rgb(167,167,167)" stroke="rgb(167,167,167)" stroke-width="1" opacity="1" d="M 596.5 606 L 600 606.5 L 596.5 607 L 596.5 606 Z " /><path fill="rgb(167,167,167)" stroke="rgb(167,167,167)" stroke-width="1" opacity="1" d="M 644.5 606 L 648 606.5 L 644.5 607 L 644.5 606 Z " /><path fill="rgb(167,167,167)" stroke="rgb(167,167,167)" stroke-width="1" opacity="1" d="M 589.5 607 L 592 607.5 L 589.5 608 L 589.5 607 Z " /><path fill="rgb(167,167,167)" stroke="rgb(167,167,167)" stroke-width="1" opacity="1" d="M 651.5 607 L 654 607.5 L 651.5 608 L 651.5 607 Z " /><path fill="rgb(167,167,167)" stroke="rgb(167,167,167)" stroke-width="1" opacity="1" d="M 584.5 608 L 587 608.5 L 584.5 609 L 584.5 608 Z " /><path fill="rgb(167,167,167)" stroke="rgb(167,167,167)" stroke-width="1" opacity="1" d="M 579.5 609 L 582 609.5 L 579.5 610 L 579.5 609 Z " /><path fill="rgb(167,167,167)" stroke="rgb(167,167,167)" stroke-width="1" opacity="1" d="M 664.5 610 L 668 611.5 L 666.5 612 L 664.5 610 Z " /><path fill="rgb(167,167,167)" stroke="rgb(167,167,167)" stroke-width="1" opacity="1" d="M 573.5 611 L 576 612.5 L 574.5 612 L 573.5 611 Z " /><path fill="rgb(167,167,167)" stroke="rgb(167,167,167)" stroke-width="1" opacity="1" d="M 383.5 614 Q 388.9 613.1 391 615.5 L 389.5 616 Q 388.3 613.8 383.5 615 L 383.5 614 Z " /><path fill="rgb(167,167,167)" stroke="rgb(167,167,167)" stroke-width="1" opacity="1" d="M 380.5 615 L 382 615.5 L 379.5 617 L 380.5 615 Z " /><path fill="rgb(167,167,167)" stroke="rgb(167,167,167)" stroke-width="1" opacity="1" d="M 377.5 617 L 378 619 L 373.5 622 L 377.5 617 Z " /><path fill="rgb(167,167,167)" stroke="rgb(167,167,167)" stroke-width="1" opacity="1" d="M 394.5 618 L 400.5 625 L 394.5 618 Z " /><path fill="rgb(167,167,167)" stroke="rgb(167,167,167)" stroke-width="1" opacity="1" d="M 686.5 620 L 687.5 622 L 685 621.5 L 686.5 620 Z " /><path fill="rgb(167,167,167)" stroke="rgb(167,167,167)" stroke-width="1" opacity="1" d="M 370.5 623 L 368.5 626 L 363 630.5 L 364.5 631 L 369 627.5 L 363.5 632 L 361.5 632 L 358.5 634 L 354 637.5 L 370.5 623 Z " /><path fill="rgb(167,167,167)" stroke="rgb(167,167,167)" stroke-width="1" opacity="1" d="M 693.5 624 L 698 627.5 L 695.5 626 L 693.5 624 Z " /><path fill="rgb(167,167,167)" stroke="rgb(167,167,167)" stroke-width="1" opacity="1" d="M 402.5 625 L 403.5 627 L 402.5 625 Z " /><path fill="rgb(167,167,167)" stroke="rgb(167,167,167)" stroke-width="1" opacity="1" d="M 405.5 627 L 406.5 629 L 405.5 627 Z " /><path fill="rgb(167,167,167)" stroke="rgb(167,167,167)" stroke-width="1" opacity="1" d="M 699.5 628 L 700.5 630 L 699.5 628 Z " /><path fill="rgb(167,167,167)" stroke="rgb(167,167,167)" stroke-width="1" opacity="1" d="M 401.5 630 L 403 630.5 L 400.5 632 L 401.5 630 Z " /><path fill="rgb(167,167,167)" stroke="rgb(167,167,167)" stroke-width="1" opacity="1" d="M 409.5 630 L 410.5 632 L 409.5 630 Z " /><path fill="rgb(167,167,167)" stroke="rgb(167,167,167)" stroke-width="1" opacity="1" d="M 702.5 630 L 704.5 633 L 702 632 L 702.5 630 Z " /><path fill="rgb(167,167,167)" stroke="rgb(167,167,167)" stroke-width="1" opacity="1" d="M 412.5 632 L 413.5 634 L 412.5 632 Z " /><path fill="rgb(167,167,167)" stroke="rgb(167,167,167)" stroke-width="1" opacity="1" d="M 706.5 634 L 720 646.5 L 716 645.5 L 717 644.5 L 713.5 641 L 712.5 643 L 712 641.5 L 713 640.5 L 707.5 635 L 705.5 636 L 706.5 634 Z " /><path fill="rgb(167,167,167)" stroke="rgb(167,167,167)" stroke-width="1" opacity="1" d="M 509.5 635 L 508.5 637 L 507 636.5 L 509.5 635 Z " /><path fill="rgb(167,167,167)" stroke="rgb(167,167,167)" stroke-width="1" opacity="1" d="M 502.5 638 L 505 639.5 L 503.5 639 L 502.5 638 Z " /><path fill="rgb(167,167,167)" stroke="rgb(167,167,167)" stroke-width="1" opacity="1" d="M 350.5 641 L 350.5 644 L 348 643.5 L 350.5 641 Z " /><path fill="rgb(167,167,167)" stroke="rgb(167,167,167)" stroke-width="1" opacity="1" d="M 431.5 643 L 432.5 645 L 431.5 643 Z " /><path fill="rgb(167,167,167)" stroke="rgb(167,167,167)" stroke-width="1" opacity="1" d="M 439.5 643 L 442 643.5 L 439.5 644 L 439.5 643 Z " /><path fill="rgb(167,167,167)" stroke="rgb(167,167,167)" stroke-width="1" opacity="1" d="M 444.5 644 L 447 644.5 L 444.5 645 L 444.5 644 Z " /><path fill="rgb(167,167,167)" stroke="rgb(167,167,167)" stroke-width="1" opacity="1" d="M 450.5 645 L 453 645.5 L 450.5 646 L 450.5 645 Z " /><path fill="rgb(167,167,167)" stroke="rgb(167,167,167)" stroke-width="1" opacity="1" d="M 477.5 645 L 480 645.5 L 477.5 646 L 477.5 645 Z " /><path fill="rgb(167,167,167)" stroke="rgb(167,167,167)" stroke-width="1" opacity="1" d="M 495.5 645 L 498 645.5 L 495.5 646 L 495.5 645 Z " /><path fill="rgb(167,167,167)" stroke="rgb(167,167,167)" stroke-width="1" opacity="1" d="M 455.5 646 L 459 646.5 L 455.5 647 L 455.5 646 Z " /><path fill="rgb(167,167,167)" stroke="rgb(167,167,167)" stroke-width="1" opacity="1" d="M 472.5 646 L 475 646.5 L 472.5 647 L 472.5 646 Z " /><path fill="rgb(167,167,167)" stroke="rgb(167,167,167)" stroke-width="1" opacity="1" d="M 721.5 648 L 723.5 651 Q 721.8 647.9 720 649.5 L 721.5 648 Z " /><path fill="rgb(167,167,167)" stroke="rgb(167,167,167)" stroke-width="1" opacity="1" d="M 721.5 651 L 722.5 653 L 721.5 651 Z " /><path fill="rgb(167,167,167)" stroke="rgb(167,167,167)" stroke-width="1" opacity="1" d="M 348.5 652 L 349 653.5 L 347 654.5 L 348.5 652 Z " /><path fill="rgb(167,167,167)" stroke="rgb(167,167,167)" stroke-width="1" opacity="1" d="M 348.5 656 L 356.5 665 L 348.5 656 Z " /><path fill="rgb(167,167,167)" stroke="rgb(167,167,167)" stroke-width="1" opacity="1" d="M 728.5 656 L 729.5 658 Q 726.7 658.7 728.5 656 Z " /><path fill="rgb(167,167,167)" stroke="rgb(167,167,167)" stroke-width="1" opacity="1" d="M 730.5 659 L 732 661.5 L 731 661.5 L 730.5 659 Z " /><path fill="rgb(167,167,167)" stroke="rgb(167,167,167)" stroke-width="1" opacity="1" d="M 616.5 662 L 632 662.5 L 616.5 663 L 616.5 662 Z " /><path fill="rgb(167,167,167)" stroke="rgb(167,167,167)" stroke-width="1" opacity="1" d="M 605.5 663 L 611 663.5 L 605.5 664 L 605.5 663 Z " /><path fill="rgb(167,167,167)" stroke="rgb(167,167,167)" stroke-width="1" opacity="1" d="M 634.5 663 L 637 663.5 L 634.5 664 L 634.5 663 Z " /><path fill="rgb(167,167,167)" stroke="rgb(167,167,167)" stroke-width="1" opacity="1" d="M 732.5 663 L 733 665.5 L 732 665.5 L 732.5 663 Z " /><path fill="rgb(167,167,167)" stroke="rgb(167,167,167)" stroke-width="1" opacity="1" d="M 600.5 664 L 603 664.5 L 600.5 665 L 600.5 664 Z " /><path fill="rgb(167,167,167)" stroke="rgb(167,167,167)" stroke-width="1" opacity="1" d="M 358.5 665 L 361 665.5 L 360 666.5 L 362.5 670 L 358.5 665 Z " /><path fill="rgb(167,167,167)" stroke="rgb(167,167,167)" stroke-width="1" opacity="1" d="M 594.5 665 L 597 665.5 L 594.5 666 L 594.5 665 Z " /><path fill="rgb(167,167,167)" stroke="rgb(167,167,167)" stroke-width="1" opacity="1" d="M 643.5 665 L 648 666.5 L 646.5 667 L 643.5 666 L 643.5 665 Z " /><path fill="rgb(167,167,167)" stroke="rgb(167,167,167)" stroke-width="1" opacity="1" d="M 654.5 669 L 659 671.5 L 657.5 671 Q 653.7 670.7 654.5 669 Z " /><path fill="rgb(167,167,167)" stroke="rgb(167,167,167)" stroke-width="1" opacity="1" d="M 364.5 670 L 366.5 673 L 364.5 670 Z " /><path fill="rgb(167,167,167)" stroke="rgb(167,167,167)" stroke-width="1" opacity="1" d="M 731.5 670 L 732 671.5 L 720.5 681 L 721.5 679 L 726 677 Q 724.9 674.3 727.5 675 L 731.5 670 Z " /><path fill="rgb(167,167,167)" stroke="rgb(167,167,167)" stroke-width="1" opacity="1" d="M 571.5 672 L 573 672.5 L 569.5 674 L 569.5 673 L 571.5 672 Z " /><path fill="rgb(167,167,167)" stroke="rgb(167,167,167)" stroke-width="1" opacity="1" d="M 660.5 672 L 665 675.5 L 662.5 674 L 660.5 672 Z " /><path fill="rgb(167,167,167)" stroke="rgb(167,167,167)" stroke-width="1" opacity="1" d="M 664.5 672 L 667 673.5 L 665.5 674 L 664.5 672 Z " /><path fill="rgb(167,167,167)" stroke="rgb(167,167,167)" stroke-width="1" opacity="1" d="M 369.5 674 L 375 678.5 L 372.5 677 L 369.5 674 Z " /><path fill="rgb(167,167,167)" stroke="rgb(167,167,167)" stroke-width="1" opacity="1" d="M 562.5 674 L 565 675.5 L 563.5 675 L 562.5 674 Z " /><path fill="rgb(167,167,167)" stroke="rgb(167,167,167)" stroke-width="1" opacity="1" d="M 666.5 676 Q 668.7 680.2 671 678.5 Q 668.2 680.2 672.5 682 L 674 681.5 L 673.5 684 L 666.5 676 Z " /><path fill="rgb(167,167,167)" stroke="rgb(167,167,167)" stroke-width="1" opacity="1" d="M 553.5 678 L 556 679.5 L 554.5 679 L 553.5 678 Z " /><path fill="rgb(167,167,167)" stroke="rgb(167,167,167)" stroke-width="1" opacity="1" d="M 379.5 681 L 380.5 683 L 379.5 681 Z " /><path fill="rgb(167,167,167)" stroke="rgb(167,167,167)" stroke-width="1" opacity="1" d="M 718.5 681 L 717.5 683 L 713.5 685 L 714.5 683 L 718.5 681 Z " /><path fill="rgb(167,167,167)" stroke="rgb(167,167,167)" stroke-width="1" opacity="1" d="M 542.5 684 L 544 684.5 L 541.5 686 L 542.5 684 Z " /><path fill="rgb(167,167,167)" stroke="rgb(167,167,167)" stroke-width="1" opacity="1" d="M 711.5 685 L 709.5 688 L 711.5 685 Z " /><path fill="rgb(167,167,167)" stroke="rgb(167,167,167)" stroke-width="1" opacity="1" d="M 390.5 686 L 390.5 688 L 395 690.5 L 393.5 690 L 389 687.5 L 390.5 686 Z " /><path fill="rgb(167,167,167)" stroke="rgb(167,167,167)" stroke-width="1" opacity="1" d="M 538.5 686 L 540 686.5 L 537.5 688 L 538.5 686 Z " /><path fill="rgb(167,167,167)" stroke="rgb(167,167,167)" stroke-width="1" opacity="1" d="M 534.5 688 L 536 688.5 L 524.5 694 L 524.5 693 L 534.5 688 Z " /><path fill="rgb(167,167,167)" stroke="rgb(167,167,167)" stroke-width="1" opacity="1" d="M 686.5 688 L 685.5 690 L 686.5 688 Z " /><path fill="rgb(167,167,167)" stroke="rgb(167,167,167)" stroke-width="1" opacity="1" d="M 707.5 688 L 701.5 695 L 707.5 688 Z " /><path fill="rgb(167,167,167)" stroke="rgb(167,167,167)" stroke-width="1" opacity="1" d="M 679.5 689 L 683.5 694 L 679.5 689 Z " /><path fill="rgb(167,167,167)" stroke="rgb(167,167,167)" stroke-width="1" opacity="1" d="M 701.5 691 L 700.5 693 L 701.5 691 Z " /><path fill="rgb(167,167,167)" stroke="rgb(167,167,167)" stroke-width="1" opacity="1" d="M 398.5 692 L 402 693.5 L 400.5 694 L 398.5 692 Z " /><path fill="rgb(167,167,167)" stroke="rgb(167,167,167)" stroke-width="1" opacity="1" d="M 407.5 694 L 406.5 696 L 407.5 694 Z " /><path fill="rgb(167,167,167)" stroke="rgb(167,167,167)" stroke-width="1" opacity="1" d="M 698.5 694 Q 701.5 695.5 698.5 697 L 698.5 694 Z " /><path fill="rgb(167,167,167)" stroke="rgb(167,167,167)" stroke-width="1" opacity="1" d="M 687.5 695 L 688.5 698 L 690 698.5 L 688.5 699 Q 684 697 687.5 695 Z " /><path fill="rgb(167,167,167)" stroke="rgb(167,167,167)" stroke-width="1" opacity="1" d="M 696.5 697 L 695.5 699 L 693 698.5 L 696.5 697 Z " /><path fill="rgb(167,167,167)" stroke="rgb(167,167,167)" stroke-width="1" opacity="1" d="M 424.5 699 L 423.5 701 L 422 700.5 L 424.5 699 Z " /><path fill="rgb(167,167,167)" stroke="rgb(167,167,167)" stroke-width="1" opacity="1" d="M 434.5 703 L 437 703.5 L 434.5 704 L 434.5 703 Z " /><path fill="rgb(167,167,167)" stroke="rgb(167,167,167)" stroke-width="1" opacity="1" d="M 438.5 704 L 442 704.5 L 438.5 705 L 438.5 704 Z " /><path fill="rgb(167,167,167)" stroke="rgb(167,167,167)" stroke-width="1" opacity="1" d="M 472.5 704 L 477 704.5 L 472.5 705 L 472.5 704 Z " /><path fill="rgb(167,167,167)" stroke="rgb(167,167,167)" stroke-width="1" opacity="1" d="M 444.5 705 L 466 705.5 L 444.5 706 L 444.5 705 Z " /></svg>